# xmcd
#
# Track frame offsets:
#	150
#	21585
#	43102
#	64635
#	85435
#	106257
#	123795
#	141577
#	159337
#	174980
#	190770
#	205732
#	218975
#	234407
#	248680
#	266152
#	281762
#
# Disc length: 3947 seconds
#
# Revision: 2
# Processed by: cddbd v1.4PL0 Copyright (c) Steve Scherf et al.
# Submitted via: audiograbber 1.82.00
#
DISCID=f70f6911
DTITLE=Manuel Salado - Sevillanas, Boleras, Rocieras Y Solo Guitarra
DYEAR=1900
DGENRE=
TTITLE0=Lenta Eon Guitarra - J.M. Roldán
TTITLE1=Lenta Eon Cante - Pepe Roca
TTITLE2=Tema 2 Sin Cante
TTITLE3=Media Con Cante - Miguel de los Reyes
TTITLE4=Tema 4 Sin Cante
TTITLE5=Media Con Guitarra - J. M. Roldán
TTITLE6=Media Con Cante - Pepe Roca
TTITLE7=Tema 7 Sin Cante
TTITLE8=Rápida Con Cante - Hnas. Fernandéz
TTITLE9=Tema 9 Sin Cante
TTITLE10=Boleras - Grupo Giralda
TTITLE11=Boleras - Grupo Giralda
TTITLE12=Rocieras Con Tambor Y Flauta - Jesús M
TTITLE13=Rocieras Con Tambor Y Flauta - Jesús M
TTITLE14=Sólo Compás Lenta - M.Saludo
TTITLE15=Sólo Compás Media - M.Saludo
TTITLE16=Sólo Compás Rapida - M.Saludo
EXTD=
EXTT0=
EXTT1=
EXTT2=
EXTT3=
EXTT4=
EXTT5=
EXTT6=
EXTT7=
EXTT8=
EXTT9=
EXTT10=
EXTT11=
EXTT12=
EXTT13=
EXTT14=
EXTT15=
EXTT16=
PLAYORDER=
